<?xml version="1.0" standalone="no"?>
<!DOCTYPE svg PUBLIC "-//W3C//DTD SVG 20010904//EN"
 "http://www.w3.org/TR/2001/REC-SVG-20010904/DTD/svg10.dtd">
<svg version="1.0" xmlns="http://www.w3.org/2000/svg"
 width="880.000000pt" height="920.000000pt" viewBox="0 0 880.000000 920.000000"
 preserveAspectRatio="xMidYMid meet">

<g transform="translate(0.000000,920.000000) scale(0.100000,-0.100000)"
fill="#000000" stroke="none">
<path d="M979 8785 c-231 -46 -436 -216 -525 -434 -52 -131 -54 -157 -54 -892
0 -756 -3 -726 67 -755 44 -19 83 -11 114 22 l24 26 5 706 5 707 25 69 c52
149 181 277 327 325 62 20 83 21 741 21 433 0 690 4 714 10 50 14 78 52 78
104 -1 44 -11 62 -50 89 -22 16 -80 17 -715 16 -529 -1 -705 -4 -756 -14z"/>
<path d="M6333 8780 c-65 -39 -65 -126 0 -174 28 -21 38 -21 751 -26 l723 -5
85 -42 c114 -57 184 -127 241 -241 l42 -85 5 -713 c5 -703 5 -713 26 -741 48
-65 135 -65 174 0 19 31 20 56 20 709 0 732 -2 759 -54 889 -70 171 -217 319
-387 391 -135 57 -156 58 -907 58 -663 0 -688 -1 -719 -20z"/>
<path d="M573 4891 c-39 -24 -53 -49 -53 -94 0 -40 28 -79 67 -96 21 -8 996
-11 3851 -9 l3824 3 29 33 c40 45 40 99 0 144 l-29 33 -3829 2 c-3777 3 -3828
3 -3860 -16z"/>
<path d="M463 2896 c-65 -29 -63 -4 -63 -755 0 -550 3 -694 14 -755 57 -297
298 -530 596 -576 53 -8 280 -10 772 -8 l696 3 26 24 c49 46 43 133 -13 169
-23 15 -95 17 -761 22 l-737 5 -85 42 c-114 57 -184 127 -241 241 l-42 85 -5
716 c-4 516 -8 722 -17 736 -31 55 -86 75 -140 51z"/>
<path d="M8227 2890 c-15 -12 -31 -38 -37 -58 -6 -24 -10 -281 -10 -712 0
-739 1 -724 -61 -839 -61 -116 -185 -213 -313 -247 -41 -11 -191 -14 -751 -14
-449 0 -713 -4 -737 -10 -20 -6 -46 -22 -58 -37 -38 -48 -19 -137 35 -161 41
-19 1418 -17 1517 2 290 56 518 283 574 572 18 98 21 1431 3 1467 -30 58 -112
76 -162 37z"/>
</g>
</svg>
